<?xml version="1.0" encoding="UTF-8" standalone="no"?>
<svg
   xmlns:dc="http://purl.org/dc/elements/1.1/"
   xmlns:cc="http://creativecommons.org/ns#"
   xmlns:rdf="http://www.w3.org/1999/02/22-rdf-syntax-ns#"
   xmlns:svg="http://www.w3.org/2000/svg"
   xmlns="http://www.w3.org/2000/svg"
   xmlns:sodipodi="http://sodipodi.sourceforge.net/DTD/sodipodi-0.dtd"
   xmlns:inkscape="http://www.inkscape.org/namespaces/inkscape"
   version="1.2"
   width="812.17999"
   height="660.05518"
   id="svg2"
   inkscape:version="0.48.5 r10040"
   sodipodi:docname="wikidata_logo.svg">
  <metadata
     id="metadata16">
    <rdf:RDF>
      <cc:Work
         rdf:about="">
        <dc:format>image/svg+xml</dc:format>
        <dc:type
           rdf:resource="http://purl.org/dc/dcmitype/StillImage" />
      </cc:Work>
    </rdf:RDF>
  </metadata>
  <defs
     id="defs14" />
  <sodipodi:namedview
     pagecolor="#ffffff"
     bordercolor="#666666"
     borderopacity="1"
     objecttolerance="10"
     gridtolerance="10"
     guidetolerance="10"
     inkscape:pageopacity="0"
     inkscape:pageshadow="2"
     inkscape:window-width="1920"
     inkscape:window-height="990"
     id="namedview12"
     showgrid="false"
     fit-margin-top="0"
     fit-margin-left="0"
     fit-margin-right="0"
     fit-margin-bottom="0"
     inkscape:zoom="0.31716592"
     inkscape:cx="414.65741"
     inkscape:cy="331.06263"
     inkscape:window-x="0"
     inkscape:window-y="41"
     inkscape:window-maximized="1"
     inkscape:current-layer="svg2" />
  <path
     d="M 1.59227,499.96435 H 30.75504 V 6e-5 H 1.59227 v 499.96429 z m 60.27256,0 h 89.42926 V 6e-5 H 61.86483 V 499.96435 z M 180.46293,6e-5 v 499.94645 h 89.42926 V 6e-5 h -89.42926 z"
     style="fill:#990000"
     id="path4"
     inkscape:connector-curvature="0" />
  <path
     d="m 721.1509,499.99996 h 29.16883 V 0 H 721.1509 V 499.99996 z M 781.42952,0 v 499.99996 h 29.16277 V 0 H 781.42952 z M 300.02544,500.00003 h 29.16277 V 6e-5 H 300.02544 V 500.00003 z M 360.30406,6e-5 V 499.98219 H 389.4729 V 6e-5 h -29.16884 z"
     style="fill:#339966"
     id="path6"
     inkscape:connector-curvature="0" />
  <path
     d="m 419.59401,500.00003 h 89.4414 V 6e-5 h -89.4414 v 499.99997 z m 118.5981,0 h 31.10372 V 6e-5 H 538.19211 V 500.00003 z M 598.46467,6e-5 v 499.98213 h 89.42926 V 6e-5 h -89.42926 z"
     style="fill:#006699"
     id="path8"
     inkscape:connector-curvature="0" />
  <path
     d="m 766.16016,555.03567 46.01562,103.68359 -27.75781,0 -8.53516,-20.48438 -46.38672,0 -7.71875,20.48438 -27.38672,0 41.78516,-103.68359 29.98438,0 m 2.07812,65.08984 -16.69922,-40.30078 -15.21484,40.30078 31.91406,0 m -60.26562,-65.08984 0,19 -37.55469,0 0,84.68359 -25.82813,0 0,-84.68359 -37.55468,0 0,-19 100.9375,0 m -133.59375,0 46.01562,103.68359 -27.75781,0 -8.53516,-20.48438 -46.38672,0 -7.71875,20.48438 -27.38672,0 41.78516,-103.68359 29.98438,0 m 2.07812,65.08984 -16.69922,-40.30078 -15.21484,40.30078 31.91406,0 m -176.56641,-65.08984 45.71875,0 c 17.66399,10e-5 31.6171,4.84905 41.85938,14.54687 10.29156,9.64852 15.43739,22.142 15.4375,37.48047 -1.1e-4,16.08076 -5.22016,28.72268 -15.66016,37.92578 -10.39071,9.15365 -25.23444,13.73047 -44.53125,13.73047 l -42.82422,0 0,-103.68359 m 25.82813,19 0,65.68359 16.84766,0 c 10.93483,2e-5 19.2968,-2.99347 25.08593,-8.98047 5.78898,-6.03642 8.68351,-13.97782 8.6836,-23.82422 -9e-5,-10.19264 -2.9441,-18.20826 -8.83203,-24.04687 -5.83862,-5.88794 -14.25007,-8.83195 -25.23438,-8.83203 l -16.55078,0 m -49.72656,-19 0,103.68359 -25.82813,0 0,-103.68359 25.82813,0 m -48.91016,0 -33.76953,48.6875 45.79297,54.99609 -32.35938,0 -41.04297,-48.61328 0,48.61328 -25.82812,0 0,-103.68359 25.82812,0 0,46.68359 32.95313,-46.68359 28.42578,0 m -111.10547,0 0,103.68359 -25.82812,0 0,-103.68359 25.82812,0 m -127.21094,37.40625 -32.0625,67.61328 -11.13281,0 L 0,555.03567 l 27.38672,0 24.41797,57.29687 26.64453,-57.29687 20.78125,0 26.64453,57.29687 24.26953,-57.29687 27.38672,0 -45.42188,105.01953 -11.13281,0 -32.21094,-67.61328"
     style="fill:#484848;fill-opacity:1;stroke:none;font-family:Gill Sans MT"
     id="path10"
     inkscape:connector-curvature="0" />
</svg>
